<?xml version="1.0" standalone="yes"?>
<svg xmlns="http://www.w3.org/2000/svg" width="300" height="120">
<path style="fill:#fefefe; stroke:none;" d="M0 0L0 120L300 120L300 0L0 0z"/>
<path style="fill:#2a6786; stroke:none;" d="M67.0116 16.8627C58.7067 19.0398 63.1256 26.5937 60.2269 32C58.4027 35.4021 54.417 39.2041 51 40.9769C47.1869 42.9551 42.3248 42.6936 41.3727 48.0046C39.9024 56.2058 48.5673 54.8014 53 57.6034C59.5752 61.7597 61.9971 67.4959 60.9684 75C59.1757 88.0767 42.6258 82.1868 39.8627 92.9969C38.1156 99.832 45.4076 102.74 50.9599 101.775C58.9199 100.39 55.2401 92.9981 58.4869 88C60.3155 85.1851 63.3904 81.7573 66.2855 80.0123C70.3119 77.5855 76.0425 77.4083 75.7431 71.0887C75.5142 66.2589 70.4168 65.0322 67 63.0309C61.9741 60.0871 54.4752 53.4455 55.0517 47C55.5316 41.6344 62.3086 35.6996 67 33.7238C70.5016 32.249 74.3036 32.1978 75.5656 27.9059C77.1885 22.3863 73.5506 15.1484 67.0116 16.8627M105 70L104 67C101.121 67.6501 97.9508 68.9096 95.0008 68.0131C90.1974 66.5534 86.7177 61.3337 91.1528 57.4336C95.4461 53.6582 100.981 56.8591 105 53C102.058 52.0673 99.1342 51.0276 96 51.1335C86.2996 51.4611 79.4402 62.4766 88.1088 69.5664C92.7625 73.3724 99.9983 72.407 105 70M117.004 51.5586C109.752 53.449 106.007 62.7971 111.434 68.7215C114.608 72.1868 120.695 72.7318 124.985 71.3472C138.578 66.9598 129.94 48.1865 117.004 51.5586M137 51L137 72C141.85 72 147.49 72.7306 151.906 70.3117C158.085 66.9268 158.771 57.8304 152.941 53.7276C148.409 50.5381 142.251 51.0006 137 51M161 51L161 72L179 72L179 68L165 68L165 63L177 63L177 59L165 59L165 55L179 55L179 51L161 51M183 53L183 55C185.857 55.7219 188.105 55.1209 190.977 55.3171C194.212 55.5382 195.644 57.8633 193.508 60.5401C189.957 64.9896 184.039 65.8516 183 72L201 72L201 68L191 68C193.522 66.1853 196.583 64.4143 198.396 61.8264C201.464 57.4479 198.91 52.5039 193.985 51.3981C190.215 50.5517 186.55 51.8748 183 53M205 68L217 68L217 72L222 72L222 68L226 68L226 64L222 64L222 51C214.431 51.5722 206.137 60.634 205 68M245 64C243.525 65.8128 242.328 67.2943 239.981 68.0216C236.238 69.1819 233.399 67.3412 231 71C236.193 71.9641 242.578 73.2613 246.566 68.7716C251.728 62.9616 249.036 52.2962 240.996 51.2284C234.679 50.3894 225.413 57.2818 232.434 63.2577C235.765 66.0933 241.182 64.909 245 64z"/>
<path style="fill:#fefefe; stroke:none;" d="M117.059 55.7431C108.829 59.1392 115.117 70.8373 122.956 68.0664C132.345 64.7474 126.041 52.036 117.059 55.7431M141 55L141 68C143.764 67.9979 147.303 68.4831 149.772 66.9722C153.632 64.6093 153.61 58.5288 149.772 56.179C147.249 54.6352 143.827 55.0081 141 55M236.337 56.0239C231.307 59.4055 240.309 62.6533 243.338 59.9769C247.067 56.6824 238.981 54.2467 236.337 56.0239M216 58C214.138 59.9454 212.532 61.7939 211 64L217 64C216.953 61.7472 216.874 60.0521 216 58z"/>
</svg>
